<?xml version="1.0" encoding="UTF-8"?>
<svg xmlns="http://www.w3.org/2000/svg" viewBox="0 0 548.38 244.82">
  <defs>
    <style>
      .cls-1 {
        fill: #211C6A;
      }

      .cls-2 {
        fill: #FFCBCB;
      }
    </style>
  </defs>
  <g id="Layer_1" data-name="Layer 1">
    <path class="cls-2" d="m548.38,226.37c-3,3-94.72,10.73-160.81,1.63C253.64,209.58,93.23,179.98,17.04,57.24L0,32.25s40.09,80.16,97.25,119.65c69.89,48.29,140.84,73.3,207.92,83.33,72,10.77,116.6,12.44,167.21,5.14,1.93-.28,61-10,76-14Z"/>
    <g>
      <path class="cls-1" d="m286.03,107c-7.1,22.43-26.52,39.35-53.93,31.92-25-6.78-33.68-29.41-26.21-53.01,7.36-23.25,27.47-38.45,53.87-31.29,24.37,6.61,33.85,28.43,26.26,52.39Zm-72.66-19.45c-5.99,18.9-.35,39.82,20.97,45.6,22.97,6.23,38.12-8.53,44.29-28.03,6.06-19.14.47-38.89-20.98-44.71-22.84-6.19-38.41,8.58-44.28,27.13Z"/>
      <path class="cls-1" d="m413.17,141.48c-7.1,22.43-26.52,39.35-53.93,31.92-25-6.78-33.68-29.41-26.21-53.01,7.36-23.25,27.47-38.45,53.87-31.29,24.37,6.61,33.85,28.43,26.26,52.39Zm-72.66-19.45c-5.99,18.9-.35,39.82,20.97,45.6,22.97,6.23,38.12-8.53,44.29-28.03,6.06-19.14.47-38.89-20.98-44.71-22.84-6.19-38.41,8.58-44.28,27.13Z"/>
      <path class="cls-1" d="m478.53,115.22l31.73,8.6c16.24,4.41,24.77,15.77,20.16,30.33-4.69,14.79-18.48,20.49-35.74,15.81l-23.86-6.47-11.34,35.81-6.98-1.89,26.03-82.2Zm-5.85,42.4l24.49,6.64c14.34,3.89,22.54-1.54,25.81-11.87,3.5-11.04-2.4-19.39-14.33-22.63l-25-6.78-10.97,34.64Z"/>
    </g>
  </g>
  <g id="Layer_1_copy" data-name="Layer 1 copy">
    <path class="cls-1" d="m135.05,96.46l-.13-.03c.61-6.72,1.68-58.83,2.2-80.5l-7.61-2.06c-13.1,20.04-42.08,61.52-46.15,68.71l-.13-.03c1.02-10.18,1.96-59.27,2.24-80.61l-7.11-1.93-1.41,88.87,7.74,2.1c12.82-18.71,40.09-57.85,45.76-67.92l.13.03c-.71,7.46-1.94,58.77-2.24,79.72l7.87,2.13,53.19-74.83-6.98-1.89c-12.3,17.96-40.91,57.38-47.38,68.24Z"/>
  </g>
</svg>