<?xml version="1.0" encoding="UTF-8"?>
<svg id="Layer_1" data-name="Layer 1" xmlns="http://www.w3.org/2000/svg" viewBox="0 0 564.32 539">
  <defs>
    <style>
      .cls-1 {
        stroke-miterlimit: 10;
      }

      .cls-1, .cls-2 {
        fill: none;
        stroke: #000;
        stroke-width: 36px;
      }

      .cls-2 {
        stroke-linecap: round;
        stroke-linejoin: round;
      }
    </style>
  </defs>
  <path class="cls-2" d="m154.11,167.01c76.39,0,175.94,0,252.42,0"/>
  <path class="cls-2" d="m154.11,167.01c-57.79-2.01-115.79-.01-115.79-.01,0,0-32.5-2.94-35.5,32.79s3,241.08,5,263.21,47,74,71,74,411-5,411-5c0,0,71.5-34.5,71.5-84.5s-1.5-246.5-1.5-246.5c0,0,1.5-36-35.5-36-13-2-48-2-48-2,0,0-31,1-69.79,4"/>
  <path class="cls-1" d="m154.11,167.01c-1.33,17.24-1.52,35.62-.29,54.9"/>
  <path class="cls-1" d="m154.11,167.01c5.54-71.68,30.95-123.39,57.42-136.22,19.29-11.92,52.29-14.92,52.29-14.92,16.54-1.94,29.5-.94,34.8-.42,25.44,2.5,45.22,10.73,52.29,14.42,38.21,19.95,51.24,87.91,55.62,137.13"/>
  <path class="cls-1" d="m408.63,221s.63-23.37-2.1-54"/>
</svg>